<svg width="1200" height="628" xmlns="http://www.w3.org/2000/svg">
 <!-- Created with Method Draw - http://github.com/duopixel/Method-Draw/ -->
 <g>
  <title>background</title>
  <rect x="-1" y="-1" width="1202" height="630" id="canvas_background" fill="#0f4c81"/>
  <g id="canvasGrid" display="none">
   <rect id="svg_1" width="100%" height="100%" x="0" y="0" stroke-width="0" fill="url(#gridpattern)"/>
  </g>
 </g>
 <g>
  <title>Layer 1</title>
  <!-- Viventra logo -->
  <g id="svg_40" stroke="null">
   <g id="svg_38" transform="matrix(0.13530440127089985,0,0,0.13530440127089985,-7728.65103304357,-4074.1217666522425) " stroke="null">
    <title>background</title>
    <rect fill="#000038" id="svg_36" height="402" width="1602" y="34042.418085" x="64063.79191" stroke="null"/>
    <g display="none" id="svg_34" stroke="null">
     <rect fill="url(#gridpattern)" stroke-width="0" y="34043.418085" x="64064.79191" height="628" width="1200" id="svg_35" stroke="null"/>
    </g>
   </g>
   <g id="svg_39" transform="matrix(0.13530440127089985,0,0,0.13530440127089985,-7728.65103304357,-4074.1217666522425) " stroke="null">
    <title>Layer 1</title>
    <text transform="rotate(-0.31272774934768677 64860.5664062487,34243.070312499854) matrix(15.573041420913075,0,0,14.297225824030667,-4772.341059320001,-6146.033102674525) " xml:space="preserve" text-anchor="start" font-family="Georgia, Times, 'Times New Roman', serif" font-size="24" id="svg_33" y="2833.370371" x="4426.28565" stroke-width="0" fill="#ffffff" stroke="#000">Viventra</text>
    <text transform="rotate(-0.31272774934768677 65564.64062500231,34113.50390625019) matrix(15.573041420913075,0,0,14.297225824030667,-4772.341059320001,-6146.033102674525) " xml:space="preserve" text-anchor="start" font-family="Helvetica, Arial, sans-serif" font-size="5" id="svg_32" y="2817.633061" x="4512.97392" stroke-width="0" fill="#ffffff" stroke="#000">TM</text>
   </g>
  </g>
  <g id="svg_440">
   <g id="svg_228" transform="matrix(0.616167210527184,0,0,0.616167210527184,0,0) ">
    <g id="svg_352">
     <path id="svg_354" d="m525.73719,460.21292l-250,0l0,-250l250,0l0,250z" fill="#ce6130" stroke-width="none"/>
     <path id="svg_353" d="m403.73719,197.94692l-3.869,109.265l-2.595,-109.597l6.464,0.332zm-29.797,1.001l17.822,108.169l-11.375,-108.739l-6.447,0.57zm-6.334,19.667l24.577,89.921l-22.577,-91.254l-2,1.333zm-40.666,-13.333l61.614,104.704l-55.574,-107.03l-6.04,2.326zm-2.658,13.477l60.278,91.568l-58.287,-95.379l-1.991,3.811zm-35.41,-12.303l57.2,61.532l-52.035,-65.433l-5.165,3.901zm-3.599,28.492l94.073,82.174l-89.74,-88.174l-4.333,6zm-14.667,2.334l85.667,64.667l-85.11,-67.506l-0.557,2.839zm4.941,40.725l99.642,45.712l-96.509,-51.375l-3.133,5.663zm-18.941,0.608l100.667,41.667l-101.333,-45.334l0.666,3.667zm-10.644,32.116l108.382,16.476l-109.599,-19.45l1.217,2.974zm10.673,22.048l109.62,1.232l-109.063,-7.68l-0.557,6.448zm-14.029,-45.497l89,27.333l-89.667,-31l0.667,3.667zm137.781,184.764l11.375,-108.739l-17.822,108.169l6.447,0.57zm-10.781,-18.904l22.577,-91.254l-24.577,89.921l2,1.333zm-38.043,22.364l47.61,-91.392l-53.65,89.065l6.04,2.327zm-5.29,-20.03l58.287,-95.379l-60.278,91.568l1.991,3.811zm-36.748,19.3l67.27,-86.188l-72.435,82.287l5.165,3.901zm0.081,-33.3l89.74,-88.174l-94.073,82.174l4.333,6zm-18.443,-5.494l85.11,-67.506l-85.667,64.666l0.557,2.84zm7.516,-37.902l96.509,-51.376l-99.642,45.713l3.133,5.663zm-22.739,-2.604l101.333,-45.334l-100.667,41.667l-0.666,3.667zm-11.195,-32.809l109.599,-19.449l-108.382,16.475l-1.217,2.974zm-2.805,24.143l89.667,-31.001l-89,27.333l-0.667,3.668zm179.235,-195.228l-13.525,108.494l14.599,-89.479l-1.074,-19.015zm21.375,11.761l-28.493,105.555l34.767,-103.968l-6.274,-1.587zm7.643,20.376l-36.776,86.513l38.539,-84.879l-1.763,-1.634zm38.436,-8.33l-71.859,96.851l77.454,-93.596l-5.595,-3.255zm4.718,12.905l-72.688,84.917l74.049,-80.838l-1.361,-4.079zm33.869,-12.54l-61.838,61.764l66.318,-57.093l-4.48,-4.671zm0.111,32.182l-102.599,72.811l105.924,-66.199l-3.325,-6.612zm17.336,8.352l-94.745,53.14l94.846,-50.248l-0.101,-2.892zm-13.437,36.228l-103.441,35.405l105.635,-29.315l-2.194,-6.09zm22.038,6.181l-107.244,28.673l106.004,-25.158l1.24,-3.515zm3.278,32.892l-109.623,-0.937l112.19,2.214l-2.567,-1.277zm-16.515,13.403l-108.899,-9.73l108.426,16.185l0.473,-6.455zm2.008,16.304l-67.52,-9.087l66.28,12.603l1.24,-3.516zm-136.471,112.706l-0.426,-109.627l-6.031,109.166l6.457,0.461zm9.375,-18.413l-9.991,-92.682l7.806,93.681l2.185,-0.999zm48.408,17.236l-54.587,-110.773l48.254,112.112l6.333,-1.339zm5.361,-12.955l-55.949,-97.521l53.378,100.967l2.571,-3.446zm30.113,-7.337l-79.836,-96.065l74.605,101.301l5.231,-5.236zm14.852,0.024l-74.315,-77.444l73.314,80.159l1.001,-2.715zm1.585,-40.993l-91.122,-60.95l87.131,66.045l3.991,-5.095zm18.798,2.406l-92.776,-57.118l92.852,60.845l-0.076,-3.727zm15.607,-30.019l-104.393,-33.471l105.123,36.601l-0.73,-3.13zm-0.408,23.684l-83.533,-41.113l83.608,44.841l-0.075,-3.728z" fill="#bf4d19" stroke-width="none"/>
    </g>
    <g id="svg_232">
     <g id="svg_233">
      <g id="svg_346">
       <g id="svg_347">
        <path id="svg_351" d="m320.01019,513.68692c-2.987,0 -5.493,-0.846 -7.277,-2.449c0.26,0.058 0.551,0.086 0.869,0.086c3.453,0 9.151,-3.228 11.324,-7.389c0.217,-2.067 -0.396,-4.376 -1.812,-6.896c-3.315,-5.838 -8.82,-7.466 -14.648,-9.189c-4.849,-1.434 -9.862,-2.916 -13.504,-7.058c-9.954,-10.596 -9.202,-23.263 2.233,-37.651c-0.092,-0.686 -0.144,-1.071 -0.196,-1.463c-3.866,-7.445 -4.552,-14.183 -2.053,-20.081c3.215,-7.589 11.649,-13.6 24.39,-17.383l0.078,-0.022l-0.006,-0.081c-0.188,-2.399 0.79,-5.015 2.684,-7.174c2.575,-2.938 6.422,-4.685 10.832,-4.919l0.178,-0.009l-0.101,-0.147c-2.886,-4.215 -3.457,-8.688 -1.566,-12.274c1.472,-2.79 4.241,-4.593 7.055,-4.593c1.668,0 3.204,0.638 4.439,1.846c0.103,0.064 0.497,0.535 0.59,0.659c1.017,1.34 1.395,2.912 1.182,4.919c-0.374,-3.863 -2.871,-5.271 -5.219,-5.271c-2.852,0 -5.581,1.867 -6.489,4.44c-0.638,1.809 -0.888,5.502 4.603,9.93l0.146,-0.134c-1.75,-2.598 -2.347,-5.018 -1.775,-7.19c0.577,-2.192 2.337,-4.074 5.237,-5.6c-2.102,3.184 -0.972,7.345 1.311,9.902c2.368,2.658 7.015,4.122 13.083,4.121c9.51,0 19.561,-3.474 22.882,-7.908c2.887,-3.866 2.608,-10.002 2.232,-12.271c3.171,3.053 4.943,8.707 4.871,15.585c-0.113,10.844 -5.03,26.601 -18.489,38.301c-5.133,4.465 -10.948,8.174 -16.572,11.762c-1.728,1.103 -3.456,2.205 -5.167,3.329c-21.479,14.074 -16.134,26.021 -10.476,38.668c0.681,1.521 1.385,3.096 2.029,4.654c5.482,7.098 4.38,13.164 2.493,17.009c-3.674,7.474 -12.743,11.941 -19.391,11.941l0,0z" fill="#2a232b" stroke-width="none"/>
        <path id="svg_350" d="m313.21219,426.32392c0.852,-1.361 2.349,-3.862 4.827,-6.614c12.467,-14.117 39.351,-14.11 51.802,-22.074c4.492,-2.792 13.153,-11.878 5.33,-3.896c-7.607,7.618 -16.997,10.345 -36.132,15.341c-19.646,5.101 -23.722,15.032 -25.852,17.167c0.013,-0.658 0.016,-0.924 0.025,0.076zm29.59,-5.067c18.531,-10.538 27.64,-4.63 40.413,-28.171c1.319,-2.504 2.089,-4.04 1.927,-3.741c-14.254,28.508 -25.318,17.027 -51.257,37.2c-1.104,0.854 -4.972,3.886 -4.727,5.26c0,0 -1.025,-2.159 13.644,-10.548zm18.271,-24.363c8.71,-1.954 14.749,-6.304 13.749,-5.729c-20.646,10.732 -50.717,-0.626 -52.951,17.25c3.043,-14.031 19.984,-6.666 39.202,-11.521zm-45.665,81.293c1.967,2.627 5.455,6.543 7.947,11.192c1.007,2.038 1.655,3.269 1.536,3.021c-0.15,-0.233 -0.734,-1.797 -1.758,-3.979c-5.519,-10.923 -26.096,-32.407 -9.883,-48.119c-11.558,10.306 -7.063,25.558 2.158,37.885zm22.477,-89.766c1.112,1.929 3.154,3.298 4.97,3.814c3.627,1.172 -5.838,-1.214 -4.942,-7.852c0.154,-1.678 0.952,-3.258 1.145,-3.711c-1.683,2.793 -2.337,4.868 -1.173,7.749z" fill="#1b141c" stroke-width="none"/>
        <path id="svg_349" d="m324.90919,419.52392c-14.06,5.821 -44.699,43.764 -21.156,59.208l1.699,1.207c16.558,9.814 13.79,8.106 20.289,15.289c-4.825,-5.396 -11.641,-8.378 -18.119,-11.143c-2.706,-1.175 -5.711,-2.516 -8.177,-4.419c-5.273,-3.865 -7.719,-8.127 -8.96,-13.253c-4.119,-14.397 19.45,-41.539 34.424,-46.889zm-5.182,28.413c-2.208,7.286 -2.518,14.654 0.167,22.124c1.798,3.846 -0.713,-7.868 -0.577,-9.888c0.646,-9.091 4.533,-16.651 10.343,-23.616c8.475,-11.28 20.252,-14.138 34.692,-21.842c-18.447,7.838 -37.363,10.155 -44.625,33.222zm52.575,-54.262c-2.912,1.841 -5.708,3.029 -5.574,2.941c-20.028,7.146 -49.126,4.403 -56.009,31.838c0,0 0.205,-0.613 0.567,-1.694c0.548,-1.896 2.616,-6.506 5.634,-9.749c8.07,-8.863 21.092,-10.477 29.116,-12.297c4.584,-1.002 10.72,-2.457 15.161,-3.974c11.71,-4.021 17.587,-10.996 19.145,-15.144c0.121,-0.286 0.216,-0.501 0.292,-0.666c-0.7,1.313 -3.382,5.74 -8.332,8.745zm8.331,-8.744c0.25,-0.47 0.245,-0.536 0,0l0,0zm-32.446,11.274c9.354,0.252 18.606,-0.313 27.512,-6.406c5.241,-3.517 7.248,-8.298 6.702,-13.057c-0.076,-0.789 -0.115,-1.153 -0.104,-0.972c-0.027,0.342 0.266,2.631 -0.726,5.634c-0.648,1.879 -1.709,3.466 -3.079,4.816c0.37,-0.723 0.602,-1.56 0.62,-2.501c-0.194,0.341 -0.401,0.674 -0.636,0.988c-3.322,4.435 -13.373,7.908 -22.882,7.908c-6.068,0.001 -10.714,-1.463 -13.083,-4.121c-2.282,-2.558 -3.413,-6.719 -1.311,-9.902c-0.345,0.182 -0.672,0.369 -0.985,0.561c-0.983,3.555 -1.464,6.757 0.521,9.06c2.653,3.077 6.233,4.825 10.177,5.602c-5.993,0.279 -11.489,0.254 -15.006,0.646c-14.071,1.387 -14.16,8.158 -14.964,10.815c3.344,-9.759 9.123,-9.686 27.244,-9.071zm-16.45,-14.992c1.601,-4.003 5.766,-5.438 9.929,-5.34c-0.963,-0.574 -2.038,-0.879 -3.179,-0.879c-2.814,0 -5.583,1.803 -7.055,4.593c-1.89,3.586 -1.319,8.06 1.566,12.274l0.101,0.147l-0.178,0.009c-4.41,0.234 -8.257,1.981 -10.832,4.919c-1.894,2.159 -2.872,4.774 -2.684,7.174l0.006,0.081l-0.078,0.022c-12.741,3.783 -21.175,9.794 -24.39,17.383c-2.143,5.058 -1.937,10.734 0.602,16.943c-2.575,-15.776 6.479,-28.02 24.293,-32.77c-0.505,-1.557 1.681,-5.714 3.897,-8.558c1.298,-1.666 7,-6 12,-4c-2.998,-2.998 -4.998,-6.998 -3.998,-11.998z" fill="#3a353a" stroke-width="none"/>
        <path id="svg_348" d="m380.55619,372.15792c0.458,2.279 0.748,8.596 -2.16,12.49c-5.553,7.413 -29.061,11.355 -35.81,3.78c-2.465,-2.763 -3.387,-7.021 -1.07,-10.11c-6.617,3.309 -7.218,8.135 -3.86,13.12c-14.194,-11.442 6.99,-20.876 6.99,-7.99c0.402,-2.144 0.317,-4.209 -1.02,-5.97c0,-0.011 -0.01,-0.03 -0.03,-0.04c-0.071,-0.095 -0.506,-0.624 -0.6,-0.67c-6.176,-6.035 -18.103,3.432 -10.08,15.149c-8.822,0.469 -14.027,6.88 -13.61,12.2c-20.399,6.058 -32.254,18.669 -22.41,37.55c0.053,0.4 0.104,0.791 0.22,1.41c-10.107,12.719 -13.392,25.898 -2.23,37.78c7.915,8.998 22.008,5.433 28.14,16.229c1.13,2.011 2.05,4.44 1.81,6.801c-2.576,4.933 -9.791,8.206 -12.48,7.13c9.597,9.559 39.416,-7.206 24.64,-26.32c-5.823,-14.095 -15.662,-27.427 8.41,-43.2c7.38,-4.85 15.06,-9.28 21.75,-15.1c20.3,-17.645 22.519,-45.971 13.4,-54.239zm-61.22,32.22c0.025,0.389 0.171,1.045 0.26,1.38c-16.569,7.271 -24.051,21.227 -22.81,34.94c-8.403,-17.972 3.563,-30.356 22.55,-36.32zm-21.93,38.24c0.02,0.021 0.03,0.04 0.04,0.061c0,0 -0.02,0.01 -0.02,0.02c-0.01,-0.02 -0.02,-0.05 -0.02,-0.081zm75.23,-23.62c-15.535,17.703 -45.832,24.573 -43.55,45.75c1.207,11.019 10.133,22.296 11.35,27.311c3.174,13.123 -17.963,26.659 -27.43,19.31c4.433,0.477 9.54,-2.942 11.94,-6.96c0.302,-1.101 0.302,-4.294 -1.93,-8.06c-5.682,-9.708 -17.007,-7.609 -25.5,-14.44c-3.81,-3.06 -6.81,-7.27 -8.18,-12c-3.542,-12.195 5.291,-22.773 8.35,-27.4c0,0 -0.357,-0.704 -0.4,-0.79c-1.744,-13.806 8.071,-30.664 22.64,-35.979c-0.044,-0.089 -0.22,-1.106 -0.22,-1.74c-0.058,-6.386 7.545,-11.939 13.5,-11.939c-7.29,-12.228 3.765,-20.163 9.51,-15.08c0.046,0.022 0.415,0.359 0.58,0.58c0.02,0.01 0.04,0.029 0.04,0.05c0.97,1.14 1.33,2.56 1.35,4.03c-0.25,-1.46 -0.85,-2.78 -2.03,-3.721c-3.075,-4.464 -20.004,4.023 -3.53,14.99c-4.196,-5.593 -4.388,-10.792 1.97,-14.22c-1.868,2.829 -1.264,6.942 1.13,9.819c5.876,7.062 22.977,4.923 30.75,1.011c5.573,-2.813 9.361,-6.896 7.93,-16.73c9.537,11.063 1.383,35.223 -8.27,46.208z" fill="#000000" stroke-width="none"/>
       </g>
      </g>
      <g id="svg_341">
       <path id="svg_345" d="m491.59519,435.07892c-6.008,-10.158 -13.474,-11.973 -19.628,-13.936c-6.323,-2.016 -19.346,-3.178 -26.449,-4.6c-6.86,-1.373 -23.153,-5.789 -23.339,-13.488c-0.192,-8.066 4.291,-40.09 4.291,-40.09l-51.728,0c0,0 4.487,32.023 4.294,40.09c-0.184,7.699 -16.48,12.115 -23.341,13.488c-7.104,1.422 -20.125,2.584 -26.448,4.6c-6.156,1.963 -13.624,3.777 -19.632,13.936c-3.644,6.16 -6.008,16.133 -6.008,27.133l194,0c-0.001,-11 -2.361,-20.973 -6.012,-27.133z" fill="#f0c7b1" stroke-width="none"/>
       <path id="svg_344" d="m422.17919,403.05592c2.495,10.929 18.165,13.698 26.293,15.325c21.909,4.379 33.772,5.134 42.297,19.539c2.903,4.916 5.459,15.864 5.962,24.153c1.835,0.291 0.531,-17.432 -5.136,-26.994c-9.742,-16.472 -29.089,-15.135 -46.077,-18.535c-6.86,-1.373 -23.153,-5.789 -23.339,-13.488l0,0zm-42.884,0c-0.186,7.699 -16.479,12.115 -23.339,13.488c-16.988,3.4 -36.335,2.063 -46.077,18.535c-5.667,9.563 -6.971,27.285 -5.136,26.994c0.503,-8.289 3.059,-19.237 5.962,-24.153c8.524,-14.405 20.388,-15.16 42.297,-19.539c8.128,-1.627 23.798,-4.397 26.293,-15.325l0,0z" fill="#ffe4d6" stroke-width="none"/>
       <path id="svg_343" d="m351.94319,424.72592c0,0 28.641,0.299 33.473,1.885c2.314,0.758 8.372,5.633 8.372,5.633s-6.556,-3.17 -8.658,-3.758c-4.883,-1.364 -33.187,-3.76 -33.187,-3.76zm48.589,10.486c2.053,-0.041 7.887,-3.799 7.887,-3.799s-5.574,2.059 -7.342,2.16c-1.491,0.086 -6.366,-1.238 -6.366,-1.238s4.138,2.91 5.821,2.877zm17.213,-7.242c6.75,-1.818 29.786,-3.23 29.786,-3.23s-23.791,-0.516 -30.51,1.725c-2.252,0.752 -7.562,5.16 -7.562,5.16s6.064,-3.058 8.286,-3.655z" fill="#e1ac8f" stroke-width="none"/>
       <path id="svg_342" d="m491.59519,435.07892c-9.741,-16.471 -29.122,-15.142 -46.077,-18.535c-6.86,-1.373 -23.153,-5.789 -23.339,-13.488c-0.192,-8.066 4.291,-40.09 4.291,-40.09l-51.728,0c0,0 4.487,32.023 4.294,40.09c-0.184,7.699 -16.48,12.115 -23.341,13.488c-7.104,1.422 -20.125,2.584 -26.448,4.6c-6.156,1.963 -13.624,3.777 -19.632,13.936c-3.644,6.16 -6.008,16.133 -6.008,27.133l194,0c-0.001,-11.001 -2.361,-20.974 -6.012,-27.134z" fill="none" stroke="#c27b55" stroke-width="1.5"/>
      </g>
      <g id="svg_338">
       <path id="svg_339" d="m400.75819,406.48292c5.607,-0.009 13.53,-3.627 20.967,-8.478c0.485,-6.84 1.756,-17.341 2.758,-25.098c-13.972,-1.825 -33.828,-1.785 -47.741,0.101c0.995,7.702 2.249,18.065 2.739,24.877c7.534,4.921 15.6,8.607 21.277,8.598z" fill="url(#svg_340)"/>
      </g>
      <g id="svg_330">
       <path id="svg_337" d="m446.20819,413.23492c-1.061,15.897 0.707,33.905 0.707,33.905c-7.768,-3.362 -22.639,-15.503 -26.666,-16.49c-4.061,2.169 -6.393,2.106 -7.4,2.359c-5.947,0.997 -13.61,2.537 -20.636,-1.041c-1.868,0.035 -3.905,0.708 -5.905,2.207c-12.993,9.737 -21.868,10.612 -28.634,15.292c1.635,-27.44 -0.969,-27.127 -1.584,-36.505c-1.19,-0.449 -1.364,-0.623 -1.995,-1.753c-10.244,3.183 -30.212,6.022 -40.19,15.947c-8.894,8.844 -11.768,22.784 -10.309,35.422c54.74,-0.592 138.876,-1.306 193.888,-0.761c0.804,-40.536 -20.802,-40.698 -51.276,-48.582z" fill="#5f8528" stroke-width="none"/>
       <path id="svg_336" d="m419.82619,432.78092c-2.052,-0.513 -3.667,-0.068 -5.207,-0.069c1.284,-0.237 3.127,-0.725 5.63,-2.062c3.544,0.869 18.16,11.9 26.269,16.461c-9.179,-2.358 -18.763,-11.898 -26.692,-14.33zm-24.332,0.485c-1.103,-0.329 -2.201,-0.746 -3.282,-1.297c-1.868,0.035 -3.905,0.708 -5.905,2.207c-10.305,7.723 -21.76,12.23 -27.887,15.123c30.454,-8.379 25.373,-15.898 37.074,-16.033z" fill="#4f7618" stroke-width="none"/>
       <path id="svg_335" d="m354.19219,411.38292c-29.116,7.575 -54.538,20.765 -50.455,51.194c-0.047,0.001 -0.096,0.002 -0.143,0.002c-0.554,-4.797 -0.479,-9.78 0.308,-14.603c1.287,-7.883 4.483,-15.332 10.001,-20.819c9.978,-9.925 29.946,-12.765 40.19,-15.947c0.036,0.065 0.066,0.114 0.099,0.173zm92.016,1.852c-0.009,0.125 -0.016,0.251 -0.023,0.376c23.922,8.212 47.547,10.712 50.868,48.203c0.142,0.001 0.29,0.003 0.431,0.004c0.804,-40.537 -17.545,-40.203 -51.276,-48.583z" fill="#70943b" stroke-width="none"/>
       <path id="svg_334" d="m498.01619,462.10892c0,0 -28.002,0.37 -46.59,0.479c-12.59,0.08 -25.181,0.15 -37.771,0.2c-81.177,0.293 -83.75,-0.07 -110.65,-0.07c0,0 -0.465,-2.604 -0.57,-5.159c-1.659,-40.352 30.275,-40.577 51.729,-46.788c0.274,-0.079 0.565,0.04 0.704,0.29c0.333,0.6 0.916,1.025 1.106,1.12c0.01,0.33 0.03,0.65 0.05,0.979c-0.794,-0.299 -0.91,-0.445 -1.815,-1.385c-0.084,-0.087 -0.178,-0.162 -0.292,-0.121c-1.901,0.687 -4.172,0.994 -6.172,1.624c4.455,6.695 4.095,7.949 10.01,14.95c0.008,0.088 0.07,1.313 0.08,1.83c-5.761,-5.881 -7.017,-9.274 -11.08,-16.48c-16.972,5.388 -33.363,6.301 -40.88,27.08c-2.474,6.846 -2.944,14.967 -2.15,21.98c59.171,-0.638 134.022,-1.259 193.7,-0.761c0.3,-14.363 -3.066,-30.22 -15.511,-37.189c-4.957,-2.779 -9.965,-3.909 -28.04,-9c-1.481,3.65 -5.049,8.293 -7.789,11.17c-0.021,-0.59 -0.04,-1.19 -0.051,-1.78c1.498,-1.947 5.708,-7.463 6.71,-9.71c-2.14,-0.6 -4.27,-1.21 -6.399,-1.84c0,-0.28 0,-0.55 0,-0.82c7.963,1.854 28.813,6.277 35.64,9.931c14.252,7.607 17.895,24.193 16.031,39.47zm-77.679,-31.21c-0.221,-0.09 -0.44,-0.15 -0.66,-0.181c-2.352,0.574 -3.164,1.221 -7.11,2c-3.127,0.617 -10.333,1.927 -17.07,0.211c0.036,0.098 0,0 0,0c-1.023,-0.566 -2.024,-0.729 -3.24,-0.7c7.722,4.384 22.273,1.246 28.08,-1.33zm11.099,7.089c-0.271,-0.19 -0.53,-0.38 -0.79,-0.58c-17.37,8.853 -32.546,8.652 -50.1,4.74c-1.11,-0.29 -2.21,-0.61 -3.3,-0.95c-0.34,0.18 -0.69,0.36 -1.05,0.52c17.99,7.309 38.715,6.383 55.24,-3.73z" fill="#345700" stroke-width="none"/>
       <path id="svg_333" d="m357.71619,449.62792c1.692,-28.206 -2.607,-30.744 -1.55,-42.351c3.373,-1.974 6.717,-2.578 8.406,-4.544c8.052,-9.419 7.112,-13.441 12.346,-15.903c1.041,4.357 1.672,14.578 1.678,14.713c3.949,11.71 6.64,16.713 9.878,21.422c1.879,2.727 5.893,6.911 6.854,9.761c-1.93,-0.97 -5.274,-0.973 -8.979,1.61c-6.009,4.147 -3.838,5.138 -16.357,9.679c-4.441,1.596 -8.273,3.765 -12.276,5.613zm88.22,-24.679c-0.004,-0.288 0.321,-14.813 0.357,-16.021c-6.442,-2.361 -13.296,-20.229 -22.095,-21.438c-2.597,16.247 0.486,10.404 -7.249,30.08c-1.912,4.86 -2.634,6.697 -2.988,14.756c0.197,-0.053 0.541,-0.146 0.557,-0.146l0,0c2.67,-0.704 3.561,-1.123 5.178,-1.56c0.83,0.169 2.208,0.877 2.463,1.081l-0.006,-0.011c7.472,3.991 14.442,11.187 24.802,15.61c0.209,-3.902 -1.019,-13.59 -1.019,-22.351z" fill="#ffffff" stroke-width="none"/>
       <path id="svg_332" d="m415.60319,431.88192c-0.33,0.094 -0.683,0.191 -1.085,0.298c-0.016,0 -0.359,0.093 -0.557,0.146c0.354,-8.059 1.076,-9.896 2.988,-14.756c7.735,-19.676 4.652,-13.833 7.249,-30.08c1.764,0.242 3.448,1.283 5.068,2.799c-1.115,8.624 -3.485,15.436 -6.941,23.212c4.048,-2.29 8.441,-5.093 12.411,-7.287c-8.254,7.429 -16.504,14.862 -19.133,25.668zm-20.275,0.844c-0.961,-2.85 -4.976,-7.034 -6.854,-9.761c-3.238,-4.709 -5.929,-9.712 -9.878,-21.422c-0.006,-0.135 -0.638,-10.355 -1.678,-14.713c-3.31,1.557 -3.032,2.683 -5.24,6.458c1.777,9.193 5.37,15.037 10.465,22.681c-4.343,-2.863 -10.406,-7.756 -16.406,-10.756c10.107,7.58 17.375,17.29 24.197,27.335c2.214,-0.677 4.116,-0.465 5.394,0.178z" fill="#dedbd4" stroke-width="none"/>
       <path id="svg_331" d="m388.55619,422.90792c-4.936,-7.178 -7.181,-13.699 -9.86,-21.37c0,0 -0.438,-10.561 -1.51,-14.85c-5.393,2.474 -4.59,5.505 -12.69,14.979c-2.291,2.666 -5.4,3.784 -8.43,5.601c-0.777,8.533 1.619,15.055 1.77,22.79c0.218,5.698 0.193,12.783 -0.23,19.729c4.04,-1.853 7.922,-4.063 12.42,-5.68c12.532,-4.546 10.38,-5.548 16.38,-9.69c3.873,-2.699 7.279,-2.524 9.09,-1.489c-0.82,-2.879 -5.005,-7.211 -6.94,-10.02zm-13.8,18.22c-7.949,3.13 -5.769,1.673 -16.68,7.931c3.049,-21.622 -1.58,-31.625 -1.58,-41.37c3.139,-1.624 6.156,-2.509 8.47,-5.16c8.667,-9.967 6.861,-12.405 11.66,-15.34c0.3,2.859 0.54,5.74 0.69,8.63c0.512,10.227 -0.853,3.241 3.17,13.78c5.946,15.57 11.621,17.19 14.31,22.569c-7.635,-3.325 -13.069,6.636 -20.04,8.96zm71.28,-16.18c-0.005,-0.397 0.353,-16.004 0.36,-16.09c-6.451,-2.231 -13.624,-20.399 -22.579,-21.48c-0.757,4.655 -1.651,14.73 -1.651,14.73c-6.107,20.451 -7.73,16.906 -8.31,30.35c0.003,0 0.646,-0.179 0.688,-0.182c2.547,-0.672 3.516,-1.094 5.133,-1.559c0.254,0.052 0.671,0.179 0.92,0.29c0.032,0.016 1.544,0.762 1.51,0.771c7.519,4.019 14.47,11.234 24.94,15.67c0.248,-3.82 -1.011,-13.643 -1.011,-22.5zm-6.21,17.481c-7.011,-4.202 -11.864,-9.296 -19.3,-12.33c-2.013,-0.85 -4.606,0.879 -6.38,2.18c0.979,-8.548 0.644,-6.609 2.46,-11.521c8.37,-22.729 6.028,-9.863 7.99,-32.89c7.676,2.56 14.698,19.021 20.99,21.05c-2.021,23.913 0.69,32.396 1.01,37.82c-2.339,-1.259 -4.5,-2.95 -6.77,-4.309z" fill="#afa9a0" stroke-width="none"/>
      </g>
      <g id="svg_234">
       <g id="svg_326">
        <g id="svg_327">
         <path id="svg_329" d="m347.95519,317.84692c-0.967,-2.31 -8.082,-5.576 -11.21,-5.06c-3.538,0.583 -4.838,4.047 -4.369,6.612c1.103,6.025 3.996,8.563 5.296,13.268c1.096,3.97 3.433,6.253 4.588,7.938c1.42,2.07 2.73,6.818 3.023,7.512c0.463,1.096 2.103,3.757 5.002,3.619c3.333,-0.16 7.545,-6.211 7.614,-7.557c0.382,-7.287 -7.429,-20.319 -9.944,-26.332z" fill="#f0c7b1" stroke="#c27b55" stroke-width="1.5"/>
         <path id="svg_328" d="m348.69019,342.41692c0,0 0.429,-0.995 -0.094,-1.879c-0.672,-1.134 -2.423,-3.219 -2.821,-4.467c-0.325,-1.021 -0.16,-3.2 -0.213,-4.266c-0.094,-1.886 -1.492,-3.177 -1.927,-4.26c-2.914,-7.238 -6.792,-11.723 -9,-12.656c-1.633,3.705 -0.339,6.416 1.94,12.116c-1.375,-7.748 -0.054,-10.17 -0.054,-10.17s4.019,3.22 6.002,10.378c0.359,1.292 -1.111,3.988 -0.83,5.299c0.352,1.646 4.184,4.83 5.257,6.163c0.836,1.038 1.74,3.742 1.74,3.742z" fill="#c27b55" stroke-width="none"/>
        </g>
       </g>
       <g id="svg_322">
        <g id="svg_323">
         <path id="svg_325" d="m453.25719,317.84692c0.967,-2.31 8.082,-5.576 11.211,-5.06c3.539,0.583 4.838,4.047 4.369,6.612c-1.104,6.025 -3.996,8.563 -5.297,13.268c-1.096,3.97 -3.434,6.253 -4.588,7.938c-1.42,2.07 -2.73,6.818 -3.023,7.512c-0.463,1.096 -2.104,3.757 -5.002,3.619c-3.332,-0.16 -7.545,-6.211 -7.613,-7.557c-0.384,-7.287 7.429,-20.319 9.943,-26.332z" fill="#f0c7b1" stroke="#c27b55" stroke-width="1.5"/>
         <path id="svg_324" d="m452.52219,342.41692c0,0 -0.43,-0.995 0.094,-1.879c0.672,-1.134 2.424,-3.219 2.82,-4.467c0.324,-1.021 0.16,-3.2 0.215,-4.266c0.094,-1.886 1.49,-3.177 1.926,-4.26c2.914,-7.238 6.793,-11.723 9,-12.656c1.633,3.705 0.338,6.416 -1.939,12.116c1.375,-7.748 0.053,-10.17 0.053,-10.17s-4.018,3.219 -6.002,10.376c-0.357,1.292 1.111,3.988 0.83,5.299c-0.352,1.646 -4.184,4.83 -5.256,6.163c-0.837,1.04 -1.741,3.744 -1.741,3.744z" fill="#c27b55" stroke-width="none"/>
        </g>
       </g>
       <g id="svg_317">
        <g id="svg_318">
         <path id="svg_321" d="m459.52219,311.97492l-0.005,0c-0.012,0.053 -10.717,44.373 -18.919,56.95c-6.452,9.895 -28.166,25.54 -39.84,25.558c-11.671,0.02 -33.437,-15.559 -39.918,-25.433c-8.242,-12.552 -19.086,-56.837 -19.098,-56.891l-0.001,0c-1.298,-4.911 -1.994,-10.066 -2.002,-15.382c-0.053,-33.474 27.153,-60.645 60.771,-60.697c33.621,-0.052 60.913,27.033 60.964,60.507c0.009,5.316 -0.669,10.472 -1.952,15.388z" fill="#f0c7b1" stroke-width="none"/>
         <path id="svg_320" d="m426.50319,241.83492c19.104,10.248 32.075,30.355 32.039,53.476c-0.009,5.316 -0.704,10.471 -2.003,15.382l-0.001,0c-0.012,0.053 -10.856,44.339 -19.099,56.891c-5.946,9.061 -24.555,25.121 -36.833,25.121c-12.279,0 -30.886,-16.061 -36.833,-25.121c-8.242,-12.552 -19.086,-56.837 -19.098,-56.891l-0.001,0c-1.298,-4.911 -1.994,-10.066 -2.002,-15.382c-0.037,-23.121 12.935,-43.228 32.037,-53.476c-20.695,9.702 -35.009,30.658 -34.971,54.942c0.008,5.316 0.704,10.471 2.002,15.382l0.001,0c0.012,0.053 10.856,44.339 19.098,56.891c4.416,6.728 15.922,16.095 26.5,21.382c-0.529,-0.226 -1.062,-0.466 -1.599,-0.717c5.408,2.875 10.664,4.763 14.713,4.768c0.049,0 0.103,-0.005 0.152,-0.005s0.103,0.005 0.152,0.005c4.049,-0.005 9.305,-1.893 14.714,-4.768c-0.538,0.253 -1.071,0.491 -1.601,0.718c10.577,-5.287 22.085,-14.655 26.501,-21.383c8.242,-12.552 19.087,-56.837 19.098,-56.891l0.002,0c1.298,-4.911 1.994,-10.066 2.002,-15.382c0.039,-24.284 -14.274,-45.24 -34.97,-54.942z" fill="#e8b9a0" stroke-width="none"/>
         <path id="svg_319" d="m459.52219,311.97492l-0.005,0c-0.012,0.053 -10.717,44.373 -18.919,56.95c-6.452,9.895 -28.166,25.54 -39.84,25.558c-11.671,0.02 -33.437,-15.559 -39.918,-25.433c-8.242,-12.552 -19.086,-56.837 -19.098,-56.891l-0.001,0c-1.298,-4.911 -1.994,-10.066 -2.002,-15.382c-0.053,-33.474 27.153,-60.645 60.771,-60.697c33.621,-0.052 60.913,27.033 60.964,60.507c0.009,5.316 -0.669,10.472 -1.952,15.388z" fill="none" stroke="#c27b55" stroke-width="1.5"/>
        </g>
       </g>
       <g id="svg_308">
        <g id="svg_309">
         <path id="svg_315" d="m400.60419,376.29992c-4.159,0 -7.258,-4.297 -7.258,-4.297c7.261,3.32 14.915,0 14.915,0s-4.008,4.297 -7.657,4.297z" fill="url(#svg_316)"/>
         <path id="svg_314" d="m412.86419,367.15592c0,0.625 -7.773,3.456 -12.258,3.575c-4.18,0.112 -12.333,-2.682 -12.333,-3.575c0,-0.892 6.441,-1.558 12.729,-1.558c6.29,0.001 11.862,0.667 11.862,1.558z" fill="#ffffff" stroke-width="none"/>
         <path id="svg_313" d="m396.17819,363.06592c0.99,-0.131 2.728,0.908 4.824,0.909c1.541,0.002 3.426,-1.067 4.612,-0.909c2.529,0.341 3.857,1.882 10.491,2.47c0,0 -3.22,1.083 -4.075,1.15c-2.72,0.216 -7.215,-0.169 -11.287,-0.181c-4.556,-0.02 -8.941,0.43 -11.697,0.301c-0.994,-0.051 -3.941,-1.137 -3.941,-1.137c5.533,-0.26 8.179,-2.221 11.073,-2.603zm-11.072,2.965c0,0 4.514,3.538 6.253,4.76c2.007,1.411 5.029,3.623 9.474,3.557c3.563,-0.058 6.641,-1.816 8.477,-2.986c1.978,-1.259 6.796,-5.463 6.796,-5.463c-2.77,0.633 -2.77,0.633 -4.075,1.149c-2.741,1.084 -7.477,2.722 -11.173,2.722c-4.563,0 -8.936,-1.639 -11.811,-2.603c-1.995,-0.668 -3.941,-1.136 -3.941,-1.136z" fill="#ed2153" stroke="#de093d" stroke-width="0.75"/>
         <path id="svg_312" d="m416.32919,365.78492c-0.458,0.663 -2.14,0.715 -2.888,0.977c-1.098,0.383 -2.162,0.856 -3.259,1.245c-2.693,0.954 -5.51,1.792 -8.375,1.98c-5.336,0.351 -10.599,-1.808 -15.596,-3.41c-0.424,-0.136 -0.994,-0.175 -1.359,-0.449c-0.326,-0.244 -0.015,-0.768 0.336,-0.701c1.051,0.199 2.092,0.731 3.141,0.994c1.224,0.308 2.583,0.16 3.832,0.113c1.592,-0.059 3.184,-0.146 4.777,-0.207c2.927,-0.109 5.842,-0.053 8.768,0.059c2.621,0.101 5.366,0.402 7.915,-0.332c0.688,-0.199 1.379,-0.399 2.047,-0.656c0.248,-0.095 1.009,-0.115 0.661,0.387c-0.177,0.256 0.04,-0.057 0,0zm-7.202,1.201c-3.415,0.013 -6.822,-0.286 -10.24,-0.217c-1.874,0.038 -3.745,0.139 -5.617,0.219c-0.566,0.024 -1.625,-0.143 -2.11,0.204c-0.466,0.334 1.182,0.807 1.325,0.852c3.306,1.039 6.829,1.78 10.304,1.346c1.704,-0.214 3.382,-0.632 5.023,-1.13c0.64,-0.195 1.439,-0.341 1.987,-0.743c0.573,-0.421 -0.406,-0.531 -0.672,-0.531c-1.057,0.004 1.102,-0.002 0,0z" fill="#bf002f" stroke-width="none"/>
         <path id="svg_311" d="m400.63819,373.34892c-4.165,0 -7.465,-2.404 -10.634,-4.801c7.714,2.61 14.222,2.572 21.819,-0.346c-3.212,2.62 -6.871,5.106 -11.185,5.147zm-6.3,-7.658c5.567,-0.262 11.102,0.228 16.657,0.047c-1.847,-0.453 -3.623,-1.426 -5.512,-1.681c-1.452,-0.142 -2.984,0.918 -4.481,0.918c-1.633,-0.001 -3.113,-0.918 -4.692,-0.918c-2.024,0.27 -3.923,1.229 -5.881,1.771c1.304,-0.022 2.607,-0.068 3.909,-0.137c1.868,-0.088 -1.421,0.065 0,0z" fill="#fc3c6b" stroke-width="none"/>
         <path id="svg_310" d="m395.87119,371.24392c1.596,0.319 3.265,0.525 4.987,0.525c1.453,0 3.029,-0.222 4.598,-0.563c-1.384,0.624 -2.973,1.132 -4.654,1.141c-1.782,0.011 -3.594,-0.464 -4.931,-1.103z" fill="#ff5780" stroke-width="none"/>
        </g>
       </g>
       <g id="svg_286">
        <g id="svg_287">
         <g id="svg_305">
          <path id="svg_306" d="m384.00819,327.92492c-3.293,-0.892 -4.969,1.202 -9.809,1.324c-8.057,0.203 -9.938,-0.703 -11.199,-2.996c-0.523,-0.952 -1.023,-2.191 -1.263,-2.957l-0.1,-4.715c1.328,-4.488 19.541,-4.944 25.9,2.027c0.287,0.757 0.433,1.463 0.465,2.122c-0.19,1.09 -0.512,2.136 -0.947,3.124c-0.707,0.921 -1.762,1.621 -3.047,2.071z" fill="url(#svg_307)"/>
         </g>
         <g id="svg_296" transform="matrix(1,0,0,1,-0.5,0) ">
          <g id="svg_297">
           <g id="svg_298">
            <path id="svg_304" d="m383.93619,324.46292c-1.231,4.522 -5.896,7.187 -10.429,5.944c-4.528,-1.241 -7.203,-5.918 -5.97,-10.442c1.23,-4.526 5.905,-7.19 10.434,-5.947c4.527,1.24 7.199,5.918 5.965,10.445z" fill="#4d3623" stroke="#1f1105" stroke-width="0.5"/>
            <path id="svg_303" d="m383.73119,322.73892c-0.625,5.021 -4.353,7.638 -8.432,7.365c-3.765,-0.253 -7.131,-3.031 -7.443,-7.828c1.302,-0.374 3.031,0.234 4.549,0.002c-0.005,0.055 -0.023,0.104 -0.025,0.16c-0.12,1.842 1.357,3.446 3.299,3.577c1.946,0.13 3.62,-1.263 3.74,-3.104c0.013,-0.24 -0.002,-0.476 -0.038,-0.702c1.353,0.204 3.004,0.003 4.35,0.53z" fill="#5c4633" stroke-width="none"/>
            <path id="svg_302" d="m376.96619,319.37692c-1.869,-0.535 -3.777,0.533 -4.26,2.396c-0.483,1.853 0.642,3.793 2.51,4.329c1.873,0.537 3.781,-0.532 4.266,-2.386c0.485,-1.864 -0.644,-3.803 -2.516,-4.339z" fill="#000000" stroke-width="none" opacity="0.9"/>
            <path id="svg_301" d="m376.96619,319.37692c-1.869,-0.535 -3.777,0.533 -4.26,2.396c-0.483,1.853 0.642,3.793 2.51,4.329c1.873,0.537 3.781,-0.532 4.266,-2.386c0.485,-1.864 -0.644,-3.803 -2.516,-4.339z" fill="none" stroke="#1f1105" stroke-width="0.75"/>
            <path id="svg_300" d="m371.71419,327.39392c-0.177,0.619 -1.142,0.356 -0.965,-0.266c0.171,-0.6 0.633,-0.967 0.926,-1.495c0.313,-0.564 1.177,-0.06 0.863,0.505c-0.241,0.435 -0.687,0.771 -0.824,1.256l0,0zm1.539,-0.987c-0.266,0.31 -0.614,1.458 -0.766,1.834c-0.241,0.598 0.727,0.856 0.965,0.266c0.082,-0.205 0.362,-1.223 0.508,-1.393c0.417,-0.486 -0.287,-1.197 -0.707,-0.707l0,0zm2.082,2.957c0.522,-0.602 0.47,-1.292 0.459,-2.041c-0.01,-0.644 -1.01,-0.645 -1,0c0.006,0.415 0.13,0.992 -0.166,1.334c-0.421,0.485 0.284,1.195 0.707,0.707l0,0zm1.021,-2.166c0.008,0.621 0.084,1.226 0.268,1.82c0.19,0.614 1.155,0.352 0.965,-0.266c-0.159,-0.513 -0.226,-1.019 -0.232,-1.555c-0.009,-0.643 -1.009,-0.644 -1.001,0.001l0,0z" fill="#ffffff" stroke-width="none" opacity="0.5"/>
            <path id="svg_299" d="m381.68319,320.75592c-0.985,0.59 -2.466,0.059 -3.305,-1.188c-0.838,-1.248 -0.713,-2.739 0.273,-3.328c0.984,-0.593 2.467,-0.061 3.301,1.187c0.838,1.248 0.717,2.738 -0.269,3.329z" fill="#ffffff" stroke-width="none" opacity="0.8"/>
           </g>
          </g>
         </g>
         <g id="svg_288">
          <path id="svg_295" d="m356.23719,322.21292c0,13.808 8.283,24.999 18.5,24.999s18.5,-11.191 18.5,-24.999c0,-13.809 -8.283,-25.001 -18.5,-25.001s-18.5,11.192 -18.5,25.001zm5.5,1.083l-0.1,-4.715c1.328,-4.488 19.541,-4.944 25.9,2.027c1.396,3.674 -0.409,6.224 -3.529,7.317c-3.293,-0.892 -4.969,1.202 -9.809,1.324c-8.057,0.203 -9.938,-0.703 -11.199,-2.996c-0.523,-0.952 -1.023,-2.191 -1.263,-2.957z" fill="#f0c7b1" stroke-width="none"/>
          <path id="svg_293" d="m360.63519,320.29592c0.023,8.56 7.646,15.459 17.038,15.416c9.389,-0.049 16.985,-7.022 16.961,-15.583c-0.023,-8.562 -7.647,-15.463 -17.04,-15.417c-9.392,0.05 -16.983,7.023 -16.959,15.584zm1.102,3l-0.1,-4.715c1.328,-4.488 19.541,-4.944 25.9,2.027c1.396,3.674 -0.409,6.224 -3.529,7.317c-3.293,-0.892 -4.969,1.202 -9.809,1.324c-8.057,0.203 -9.938,-0.703 -11.199,-2.996c-0.523,-0.952 -1.023,-2.191 -1.263,-2.957z" fill="url(#svg_294)"/>
          <path id="svg_291" d="m363.00119,326.25392c-0.524,-0.953 -1.024,-2.192 -1.264,-2.958l-0.1,-4.715c1.328,-4.488 19.541,-4.944 25.9,2.027c1.396,3.674 -0.409,6.224 -3.529,7.317c-3.293,-0.892 -4.969,1.202 -9.809,1.324c-8.056,0.203 -9.938,-0.703 -11.198,-2.995z" fill="url(#svg_292)"/>
          <path id="svg_290" d="m390.40219,318.91092c-9.617,-6.546 -16.701,-6.963 -28.117,-6.129c9.529,-1.706 20.504,-0.47 28.117,6.129z" fill="#c27b55" stroke-width="none"/>
          <path id="svg_289" d="m388.43419,321.07392c0.371,0.625 0.543,0.968 0.733,2.484c-3.24,-9.449 -25.943,-9.504 -27.43,-4.752l0,4.427c-1.021,-1.75 -1.494,-3.878 -1.931,-5.889c-0.093,-0.428 -2.348,-2.602 -2.348,-2.602s2.435,1.326 2.798,1.349c-0.182,-0.216 -1.127,-1.248 -1.127,-1.248s2.251,0.931 2.576,0.843c-0.436,-0.186 -1.071,-0.823 -1.071,-0.823c0.483,0.141 1.646,0.604 2.723,0.369c10.863,-2.365 22.558,0.247 26.703,8c-0.675,-0.982 -1.098,-1.549 -1.626,-2.158zm-2.754,7.187c-4.625,-2.25 -5.94,0.428 -11.563,0.563c-8.004,0.191 -9.567,-0.871 -11.125,-2.813c0.813,2.375 1.375,3.504 10.875,3.438c5.376,-0.038 8.313,-2.563 11.813,-1.188z" fill="#1b2a40" stroke-width="none"/>
         </g>
        </g>
       </g>
       <g id="svg_264">
        <g id="svg_265">
         <g id="svg_283">
          <path id="svg_284" d="m417.46619,327.92492c3.293,-0.892 4.969,1.202 9.809,1.324c8.057,0.203 9.938,-0.703 11.199,-2.996c0.523,-0.952 1.023,-2.191 1.264,-2.958l0.1,-4.715c-1.328,-4.488 -19.541,-4.944 -25.9,2.027c-0.287,0.757 -0.433,1.463 -0.465,2.122c0.19,1.09 0.512,2.136 0.947,3.124c0.706,0.922 1.761,1.622 3.046,2.072z" fill="url(#svg_285)"/>
         </g>
         <g id="svg_274" transform="matrix(1,0,0,1,0.5,0) ">
          <g id="svg_275">
           <g id="svg_276">
            <path id="svg_282" d="m433.93619,324.46292c-1.231,4.522 -5.896,7.187 -10.429,5.944c-4.528,-1.241 -7.203,-5.918 -5.97,-10.442c1.23,-4.526 5.905,-7.19 10.434,-5.947c4.527,1.24 7.199,5.918 5.965,10.445z" fill="#4d3623" stroke="#1f1105" stroke-width="0.5"/>
            <path id="svg_281" d="m433.73119,322.73892c-0.625,5.021 -4.353,7.638 -8.432,7.365c-3.765,-0.253 -7.131,-3.031 -7.443,-7.828c1.302,-0.374 3.031,0.234 4.549,0.002c-0.005,0.055 -0.023,0.104 -0.025,0.16c-0.12,1.842 1.357,3.446 3.299,3.577c1.946,0.13 3.62,-1.263 3.74,-3.104c0.013,-0.24 -0.002,-0.476 -0.038,-0.702c1.353,0.204 3.004,0.003 4.35,0.53z" fill="#5c4633" stroke-width="none"/>
            <path id="svg_280" d="m426.96619,319.37692c-1.869,-0.535 -3.777,0.533 -4.26,2.396c-0.483,1.853 0.642,3.793 2.51,4.329c1.873,0.537 3.781,-0.532 4.266,-2.386c0.485,-1.864 -0.644,-3.803 -2.516,-4.339z" fill="#000000" stroke-width="none" opacity="0.9"/>
            <path id="svg_279" d="m426.96619,319.37692c-1.869,-0.535 -3.777,0.533 -4.26,2.396c-0.483,1.853 0.642,3.793 2.51,4.329c1.873,0.537 3.781,-0.532 4.266,-2.386c0.485,-1.864 -0.644,-3.803 -2.516,-4.339z" fill="none" stroke="#1f1105" stroke-width="0.75"/>
            <path id="svg_278" d="m421.71419,327.39392c-0.177,0.619 -1.142,0.356 -0.965,-0.266c0.171,-0.6 0.633,-0.967 0.926,-1.495c0.313,-0.564 1.177,-0.06 0.863,0.505c-0.241,0.435 -0.687,0.771 -0.824,1.256l0,0zm1.539,-0.987c-0.266,0.31 -0.614,1.458 -0.766,1.834c-0.241,0.598 0.727,0.856 0.965,0.266c0.082,-0.205 0.362,-1.223 0.508,-1.393c0.417,-0.486 -0.287,-1.197 -0.707,-0.707l0,0zm2.082,2.957c0.522,-0.602 0.47,-1.292 0.459,-2.041c-0.01,-0.644 -1.01,-0.645 -1,0c0.006,0.415 0.13,0.992 -0.166,1.334c-0.421,0.485 0.284,1.195 0.707,0.707l0,0zm1.021,-2.166c0.008,0.621 0.084,1.226 0.268,1.82c0.19,0.614 1.155,0.352 0.965,-0.266c-0.159,-0.513 -0.226,-1.019 -0.232,-1.555c-0.009,-0.643 -1.009,-0.644 -1.001,0.001l0,0z" fill="#ffffff" stroke-width="none" opacity="0.5"/>
            <path id="svg_277" d="m431.68319,320.75592c-0.985,0.59 -2.466,0.059 -3.305,-1.188c-0.839,-1.248 -0.714,-2.739 0.272,-3.328c0.984,-0.593 2.467,-0.061 3.301,1.187c0.84,1.248 0.718,2.738 -0.268,3.329z" fill="#ffffff" stroke-width="none" opacity="0.8"/>
           </g>
          </g>
         </g>
         <g id="svg_266">
          <path id="svg_273" d="m426.73719,297.21192c-10.217,0 -18.5,11.192 -18.5,25.001c0,13.808 8.283,24.999 18.5,24.999s18.5,-11.191 18.5,-24.999c0,-13.809 -8.283,-25.001 -18.5,-25.001zm11.736,29.042c-1.261,2.293 -3.143,3.199 -11.199,2.996c-4.84,-0.122 -6.516,-2.216 -9.809,-1.324c-3.12,-1.093 -4.925,-3.643 -3.529,-7.317c6.359,-6.971 24.572,-6.516 25.9,-2.027l-0.1,4.715c-0.239,0.765 -0.739,2.004 -1.263,2.957z" fill="#f0c7b1" stroke-width="none"/>
          <path id="svg_271" d="m423.88319,304.71192c-9.393,-0.045 -17.017,6.856 -17.04,15.417c-0.024,8.56 7.572,15.533 16.961,15.583c9.392,0.043 17.015,-6.856 17.038,-15.416c0.024,-8.561 -7.568,-15.534 -16.959,-15.584zm14.59,21.542c-1.261,2.293 -3.143,3.199 -11.199,2.996c-4.84,-0.122 -6.516,-2.216 -9.809,-1.324c-3.12,-1.093 -4.925,-3.643 -3.529,-7.317c6.359,-6.971 24.572,-6.516 25.9,-2.027l-0.1,4.715c-0.239,0.765 -0.739,2.004 -1.263,2.957z" fill="url(#svg_272)"/>
          <path id="svg_269" d="m438.47319,326.25392c0.523,-0.952 1.023,-2.191 1.264,-2.958l0.1,-4.715c-1.328,-4.488 -19.541,-4.944 -25.9,2.027c-1.396,3.674 0.409,6.224 3.529,7.317c3.293,-0.892 4.969,1.202 9.809,1.324c8.056,0.203 9.938,-0.703 11.198,-2.995z" fill="url(#svg_270)"/>
          <path id="svg_268" d="m411.07219,318.91092c9.617,-6.546 16.701,-6.963 28.117,-6.129c-9.529,-1.706 -20.504,-0.47 -28.117,6.129z" fill="#c27b55" stroke-width="none"/>
          <path id="svg_267" d="m411.41419,323.23392c4.146,-7.754 15.84,-10.365 26.703,-8c1.077,0.234 2.239,-0.229 2.723,-0.369c0,0 -0.636,0.637 -1.071,0.823c0.325,0.088 2.576,-0.843 2.576,-0.843s-0.945,1.032 -1.127,1.248c0.363,-0.022 2.798,-1.349 2.798,-1.349s-2.255,2.174 -2.348,2.602c-0.437,2.011 -0.91,4.139 -1.931,5.889l0,-4.427c-1.487,-4.752 -24.19,-4.698 -27.431,4.751c0.19,-1.516 0.362,-1.859 0.733,-2.484c-0.527,0.608 -0.95,1.175 -1.625,2.159zm16.192,6.214c9.5,0.066 10.063,-1.063 10.875,-3.438c-1.558,1.941 -3.121,3.004 -11.125,2.813c-5.622,-0.134 -6.938,-2.813 -11.563,-0.563c3.501,-1.374 6.438,1.151 11.813,1.188z" fill="#1b2a40" stroke-width="none"/>
         </g>
        </g>
       </g>
       <g id="svg_259">
        <path id="svg_262" d="m440.94119,348.21992c0.035,22.275 -17.995,40.365 -40.273,40.396c-22.274,0.036 -40.361,-17.993 -40.396,-40.272c-0.034,-22.274 17.995,-40.361 40.273,-40.396c22.275,-0.034 40.363,17.995 40.396,40.272z" fill="url(#svg_263)"/>
        <path id="svg_260" d="m435.73719,291.21192c0,19.329 -15.671,35 -35,35c-19.329,0 -35,-15.671 -35,-35s15.671,-35 35,-35c19.329,0 35,15.671 35,35z" fill="url(#svg_261)"/>
       </g>
       <g id="svg_255">
        <g id="svg_256">
         <g id="svg_257">
          <path id="svg_258" d="m375.53619,304.28092c-4.425,-0.475 -21.252,3.714 -21.252,3.714s16.789,-6.74 23.757,-5.667c5.188,0.798 14.397,5.077 12.706,7.339c-1.361,1.821 -5.602,-4.354 -15.211,-5.386z" fill="#2a232b" stroke-width="none"/>
         </g>
        </g>
       </g>
       <g id="svg_251">
        <g id="svg_252">
         <g id="svg_253">
          <path id="svg_254" d="m410.46819,309.39992c-1.713,-2.292 7.592,-6.31 13.546,-6.804c7.117,-0.59 22.914,4.085 22.914,4.085s-15.9,-2.628 -20.377,-2.106c-9.816,1.144 -14.704,6.669 -16.083,4.825z" fill="#2a232b" stroke-width="none"/>
         </g>
        </g>
       </g>
       <g id="svg_247">
        <g id="svg_248">
         <path id="svg_250" d="m400.51119,355.09392c-0.868,0 -1.793,0.006 -2.595,-0.354c-0.858,-0.387 -1.429,-0.54 -2.317,-0.86c-0.858,-0.31 -1.889,0.445 -2.748,0.516c-0.694,0.057 -1.487,-0.142 -1.911,-0.685c-1.43,-1.829 0.273,-2.953 0.273,-2.953s-0.557,1.283 -0.202,1.853c0.304,0.485 0.752,0.882 1.306,1.015c0.923,0.225 1.802,-0.454 2.708,-0.525c1.013,-0.079 1.748,-0.097 2.482,0.495c0.732,0.591 1.532,0.704 2.463,0.752c0.865,0.045 1.771,0.082 2.583,-0.251c0.709,-0.289 1.303,-0.797 1.967,-1.17c1.414,-0.792 2.525,0.202 4.001,0.604c1.182,0.323 2.456,-0.82 1.993,-2.122c-0.264,-0.741 -0.221,-1.183 -0.221,-1.183s1.126,0.511 1.059,1.768c-0.085,1.566 -1.45,2.665 -2.992,2.253c-0.758,-0.2 -1.574,-0.771 -2.378,-0.626c-0.818,0.146 -1.446,0.147 -2.126,0.594c-1.027,0.671 -2.115,0.879 -3.345,0.879z" fill="#c27b55" stroke-width="none"/>
         <path id="svg_249" d="m394.36719,345.75692c0,0 3.096,-4.31 5.907,-4.362c2.605,-0.048 6.032,3.786 6.032,3.786s-3.158,-1.323 -6.284,-1.104c-2.79,0.196 -5.655,1.68 -5.655,1.68z" fill="#e8b9a0" stroke-width="none"/>
        </g>
       </g>
       <g id="svg_240">
        <path id="svg_246" d="m464.21319,281.06192c-5.519,-34.778 -111.662,-67.828 -118.46,-15.277c-0.885,18.136 -10.912,73.919 -11.9,84.041c6.018,-18.799 20.431,-5.47 38.764,-49.857c4.9,-11.864 11.813,-39.917 31.311,-41.801c9.464,-0.893 16.743,3.867 19.483,12.72c8.666,-4.414 8.823,13.935 10.045,23.533c1.612,12.513 0.039,18.399 7.431,27.51c0.063,0.161 1.351,1.595 1.363,1.609c11.489,12.621 22.998,12.145 25.989,24.744c1.173,4.932 -5.766,-67.708 -4.026,-67.222z" fill="#2a232b" stroke-width="none" opacity="0.1"/>
        <path id="svg_245" d="m311.41619,303.20192c-0.08,0.52 -0.14,1.05 -0.18,1.58c-3.683,6.71 -0.19,17.072 7.2,19.07c3.015,2.597 6.918,4.146 10.19,4.51c-15.537,2.907 -24.403,-12.993 -17.21,-25.16zm130.31,82.813c1.873,11.332 -8.278,12.377 -17.511,19.258l-0.136,-0.146c3.56,-4.151 8.838,-4.812 12.242,-8.592c5.51,-6.138 -0.258,-14.435 1.428,-20.549c2.926,-10.847 21.597,-10.767 21.597,-24.554c-0.088,-11.4 -10.183,-10.74 -13.68,-25.996c3.991,4.223 8.235,7.215 14.113,9.352c2.064,2.779 5.38,10.297 2.086,14.754l-0.133,-0.071c1.018,-3.279 0.099,-7.181 -1.637,-9.489c-1.885,-2.487 -3.539,-2.963 -5.204,-3.87c6.479,8.318 6.148,15.227 6.144,15.296c0,18.127 -24.507,11.586 -19.896,31.825c0.395,1.726 0.462,2.093 0.595,2.789l-0.008,-0.007zm-112.915,-57.73c-0.721,0.188 -1.471,0.338 -2.282,0.473c-19.331,17.736 8.183,44.458 20.79,26.081l-0.148,-0.132c-1.512,1.33 -3.145,2.004 -4.854,2.004l-0.001,0c-4.978,-0.002 -9.098,-5.829 -7.713,-10.782c2.755,-9.938 16.66,-13.418 22.715,-21.969c3.322,-4.667 7.244,-13.057 9.402,-18.934l-0.181,-0.083c-9.065,16.289 -23.697,25.106 -37.728,23.342zm26.672,-1.239c-2.594,6.695 -17.633,13.882 -13.478,23.168l0.189,-0.06c-0.4,-2.134 0.236,-4.373 1.944,-6.846c5.659,-8.237 14.417,-8.034 16.256,-22.935l-0.188,-0.059c-1.45,2.741 -2.006,3.88 -4.723,6.732zm114.68,15.73c1.005,1.093 2.341,3.133 3.048,5.467l0.195,-0.025c0.314,-7.889 -6.813,-11.093 -13.422,-13.359c0.99,1.468 13.351,10.311 5.77,21.729c-6.407,9.553 -20.878,9.986 -24.507,22.293c0.191,2.607 1.072,5.197 1.342,8.249c1.865,3.505 1.438,5.546 0.955,6.777l0.176,0.092c2.649,-3.987 0.84,-6.468 -0.039,-8.81c-4.883,-13.385 11.86,-17.55 21.416,-26.186c7.449,-7.448 7.023,-12.846 5.066,-16.227zm3.785,-19.889c4.254,-0.131 8.963,-2.941 9.957,-8.197l-0.181,-0.076c-3.981,5.667 -9.384,4.417 -10.994,3.249c4.146,-3.207 6.866,-7.883 7.496,-13.841c0.855,-8.086 -2.466,-16.957 -6.196,-21.562c0.679,-4.414 -0.745,-5.51 -3.217,-7.753l-0.149,0.131c2.775,4.03 -1.925,10.404 -7.444,2.045c1.132,1.552 2.68,3.229 4.529,3.746c-5.866,-36.958 -29.602,-49.74 -43.027,-44.981c-44.853,-30.048 -87.356,3.13 -94.583,58.978c-8.654,-6.647 -17.233,-1.502 -18.283,9.256c-2.856,27.867 36.579,37.724 57.34,-6.717c5.763,-12.363 13.758,-38.861 34.479,-40.863c0.731,-0.07 1.461,-0.106 2.166,-0.106c8.938,0 15.002,5.705 17.664,14.319c9.215,-4.692 12.382,13.048 13.681,23.25c1.714,13.297 0.041,19.554 7.897,29.234c0.067,0.171 1.436,1.697 1.448,1.711c12.213,13.413 23,8.257 26.729,19.893c1.64,5.134 -1.395,9.365 -4.83,13.418c1.683,-0.594 5.142,-0.965 8.508,-2.992c10.803,-6.517 12.52,-21.241 -2.99,-32.142z" fill="#2a232b" stroke-width="none"/>
        <path id="svg_244" d="m380.74419,271.65692c3.484,-8.505 13.429,-16.407 28.114,-15.8c7.039,0.291 15.361,8.612 14.549,15.101c-9.122,-8.453 -29.394,-8.453 -42.663,0.699z" fill="#0c080c" stroke-width="none"/>
        <path id="svg_243" d="m471.16619,275.02892c2.258,2.056 3.086,2.956 2.981,5.889c-1.468,6.625 -9.488,4.38 -13.608,0.529c7.969,4.011 13.608,-0.529 10.627,-6.418zm12.739,39.662l-0.05,-0.021c-0.736,1.761 -1.699,3.408 -3.118,4.827c-7,5 -16,2 -22,-3c4.172,4.768 9.765,6.677 15.508,6.609c-0.101,-0.072 -0.195,-0.147 -0.297,-0.219c4.254,-0.131 8.963,-2.941 9.957,-8.196zm-162.168,26.805c0.924,-5.081 3.351,-9.303 6.474,-13.071c0,0 -0.799,0.187 -1.682,0.333c-13.494,12.38 -4.18,29.248 7.159,31.901c-7.382,-3.722 -12.657,-10.692 -11.951,-19.163zm44.802,-36.553c-1.389,5.293 -6.815,15.637 -9.221,19.017c-6.055,8.55 -19.96,12.031 -22.715,21.969c-1.832,6.554 5.961,14.591 12.568,8.778l0.148,0.132c-0.396,0.577 -0.815,1.104 -1.248,1.604c-11.551,8.911 -20.499,-8.806 -11.334,-17.946c9.878,-9.85 23.354,-10.072 31.802,-33.554zm-38.001,23.405c-13.83,3.412 -24.862,-12.053 -17.122,-25.146c-0.08,0.52 -0.14,1.05 -0.18,1.58c-3.683,6.71 -0.19,17.072 7.2,19.07c2.989,2.574 6.848,4.115 10.102,4.496zm141.387,29.254c-1.076,0.251 -1.021,0.252 -1.494,0.419c3.436,-4.053 6.47,-8.284 4.83,-13.418c-3.797,-11.849 -14.94,-6.297 -27.454,-20.715c-0.021,-0.132 -0.021,-0.132 0,0c-8.636,-9.933 -6.913,-16.879 -8.62,-30.123c-1.299,-10.201 -4.466,-27.941 -13.681,-23.25c-3.2,-10.356 -10.696,-15.091 -19.83,-14.213c-20.72,2.001 -28.716,28.5 -34.479,40.863c-17.827,38.158 -49.375,36.244 -56.151,17.442c2.157,2.185 8.936,7.523 11.927,8.292c16.314,4.193 27.764,-5.402 34.764,-20.402c10,-22 21,-60 51,-52c6,2 13,8 14,16c1,-4 5.137,-1.504 6,-1c7.536,4.402 8,31 12,47c2,8 8,13 14,16c9,4 25,10 19,22c6.769,-4.062 8.493,-11.33 7.043,-18.394c5.822,10.061 1.611,22.135 -12.855,25.499zm-8.059,-8.06l-0.133,-0.071c1.017,-3.275 0.104,-7.174 -1.637,-9.489c-1.885,-2.487 -3.539,-2.963 -5.204,-3.87c4.465,5.581 6.358,12.247 6.144,15.296c0,8.941 -6.206,12.02 -11.986,15.351c4.062,-3.166 8.695,-5.614 10.688,-10.262c1.146,-3.44 1.423,-9.372 -2.048,-13.682c-11.664,-14.484 -11.253,-14.337 -11.94,-17.292c3.938,3.995 7.768,6.989 14.031,9.265c2.063,2.779 5.379,10.297 2.085,14.754zm11.54,-1.325l-0.195,0.025c-0.707,-2.334 -2.043,-4.374 -3.048,-5.467c1.957,3.382 2.383,8.779 -5.066,16.228c-9.556,8.636 -26.299,12.801 -21.416,26.186c0.879,2.342 2.688,4.822 0.039,8.81l-0.176,-0.092c0.483,-1.231 0.91,-3.272 -0.955,-6.777c-0.27,-3.052 -1.15,-5.642 -1.342,-8.249c3.629,-12.307 18.1,-12.74 24.507,-22.293c7.571,-11.404 -4.733,-20.192 -5.77,-21.729c6.608,2.265 13.736,5.469 13.422,13.358zm-33.75,-101.536c1.651,-0.094 6.902,0.992 11.702,5.47c0.264,0.246 1.177,0.876 1.267,1.242c-0.053,-0.213 -0.432,-0.529 -0.565,-0.695c-8.649,-10.731 -20.844,-10.137 -26.215,1.18c3.729,-5.926 7.352,-7.427 13.811,-7.197zm-13.627,1.032c3.131,-6.863 6.52,-8.033 11.678,-9.144c-2.425,0.7 -4.488,1.909 -6.559,3.308c-2.207,1.491 -3.769,3.584 -5.119,5.836zm-26.864,-15.956c6.193,0.112 9.726,0.061 15.894,2.858c3.988,1.808 8.072,6.634 9.125,10.58c0.092,0.343 0.146,0.956 0.357,1.247c-0.157,-0.216 -0.236,-0.559 -0.338,-0.802c-0.903,-2.179 -2.23,-4.043 -3.886,-5.615c-3.045,-2.892 -9.305,-6.081 -13.272,-7.017c-2.595,-0.612 -5.238,-0.923 -7.88,-1.251zm-12.962,11.92c8.818,-2.963 18.533,-4.691 27.102,-0.052c7.246,3.922 12.452,15.885 12.019,21.152c0.035,-0.425 -0.144,-0.972 -0.211,-1.389c-0.442,-2.74 -1.213,-5.677 -3.733,-9.784c-8.021,-13.069 -20.488,-13.879 -35.177,-9.927zm39.622,16.872c4.646,-5.594 9.915,-8.012 15.557,-3.422c3.039,2.473 5.411,7.471 7.541,12.139c0.311,0.68 1.049,1.718 1.128,2.47c-0.023,-0.226 -3.622,-5.88 -3.745,-6.071c-8.109,-12.362 -13.295,-11.777 -20.481,-5.116zm3.79,2.894c2.147,-0.928 5.885,-2.564 10.627,3.72c8.927,11.829 8.434,30.24 9.228,31.829c0,0 -2.488,-11.189 -5.874,-20.503c-2.357,-6.943 -6.085,-18.386 -13.981,-15.046zm0.627,-27.289c-5.084,7.857 -4.512,12.572 -4.862,14.069c0,-4.912 -0.396,-7.672 4.862,-14.069zm-77.559,18.809c4.472,-7.266 10.315,-14.187 17.663,-18.69c8.727,-4.957 20.542,-5.78 22.963,-5.192c-0.413,-0.1 -1.087,0.085 -1.501,0.125c-11.129,1.079 -23.681,8.191 -30.803,14.742c-3.039,2.795 -5.703,5.831 -8.322,9.015zm32.657,-9.581c-10.324,3.203 -16.542,11.63 -21.404,21.625c-9.15,18.806 -10.898,26.462 -12.699,33.429c0.259,-1 5.646,-49.053 34.103,-55.054zm-62.522,53.499c-3.561,8.263 7.553,11.926 16.005,5.157c1.625,-1.303 3.44,-3.105 4.366,-5.016c-8.112,16.739 -25.89,9.267 -20.371,-0.141zm-2.396,12.686c3.221,6.726 11.029,8.173 17.526,5.532c10.127,-4.116 11.257,-12.798 11.927,-14.286c-0.467,1.039 -0.135,3.909 -2.753,8.552c-7.062,12.519 -23.269,10.289 -26.7,0.202zm131.887,-29.363c5.011,7.583 12.652,33.006 27.642,15.851c-1.259,1.44 -7.862,12.561 -17.513,4.278c-2.713,-2.719 -4.492,-6.374 -6.011,-9.85c-0.768,-1.759 -4.118,-10.279 -4.118,-10.279z" fill="#1b141c" stroke-width="none"/>
        <path id="svg_242" d="m311.75819,308.18892c-0.083,-1.398 -0.053,-2.837 0.098,-4.307c0.713,-7.312 4.967,-12.225 10.584,-12.225c2.024,0 4.145,0.678 6.218,1.957c-9.528,-3.028 -15.498,5.236 -16.9,14.575zm15.437,15.026c0.412,0.124 0.996,0.163 1.375,0.362c-1.165,-0.611 -2.362,-1.095 -3.475,-1.823c-8.705,-5.689 -9.406,-16.603 -5.602,-22.126c2,-2.904 4.856,-4.222 8.06,-5.354c-16.256,1.918 -18.509,23.49 -0.358,28.941zm42.019,-51.444c8.522,-15.251 18.99,-26.346 36.584,-25.088c8.769,0.627 12.573,5.472 13.573,6.249c-0.695,-0.54 -1.208,-1.363 -1.875,-1.952c-10.759,-9.52 -33.727,-8.778 -48.804,15.549c-14.095,22.74 -8.382,47.693 -30.983,56.808c21.78,-7.227 18.722,-28.684 31.505,-51.566zm72.078,-20.624c4.046,2.542 6.225,7.406 8.431,11.449c3.468,6.355 11.339,20.026 18.525,19.247c-0.817,0.088 -2.025,-0.526 -2.74,-0.868c-6.921,-3.315 -10.014,-14.387 -13.951,-20.79c-7.076,-11.503 -13.41,-15.536 -23.121,-6.073c3.662,-2.801 8.314,-5.82 12.856,-2.965zm10.119,39.165c0.313,0 1.294,3.863 1.411,4.243c3.23,10.488 5.633,20.354 13.769,24.604c3.326,1.738 7.543,1.937 11.065,0.615c-1.68,0.63 -6.101,0.697 -9.473,-1.113c-8.039,-4.448 -12.801,-20.943 -16.772,-28.349c-0.001,0 0.347,0.649 0,0zm12.122,8.94c8.201,8.268 16.567,-2.15 16.567,-2.15c-0.07,-0.044 -1.289,0.962 -1.435,1.061c-5.791,3.958 -11.011,5.188 -19.353,-9.521c-1.483,-2.614 -2.706,-5.6 -4.612,-7.941c2.535,5.343 4.491,14.173 8.833,18.551zm-2.517,25.263c9.286,3.633 14.87,4.469 17.569,14.461c0.243,0.9 0.716,2.036 0.731,2.972c-0.015,-0.868 -0.262,-1.837 -0.415,-2.689c-2.922,-16.191 -16.892,-13.159 -24.917,-22.424c-7.583,-8.756 -6.702,-24.363 -14.525,-44.845c8.576,29.401 2.06,44.893 21.557,52.525zm-88.25,-92.48c1.241,-1.198 3.136,-1.921 4.725,-2.482c7.571,-2.674 15.332,-1.807 21.078,-1.52c13.311,0.664 19.81,4.694 25.242,10.029c-13.312,-17.487 -42.199,-14.566 -51.045,-6.027zm-27.359,25.775c-1.168,2.621 -2.494,5.509 -3.051,8.347c0.083,-0.421 0.374,-0.872 0.547,-1.259c2.896,-6.466 5.574,-10.3 9.528,-15.151c3.799,-5.568 9.38,-11.069 15.787,-13.439c-7.877,1.947 -17.352,9.259 -22.811,21.502zm-5.631,33.18c-0.198,1.042 -0.562,2.207 -0.573,3.274c0.009,-0.869 0.568,-1.976 0.821,-2.793c2.163,-7.005 3.842,-10.827 6.375,-17.01c2.431,-5.937 3.638,-11.355 10.621,-20.705c-10.338,10.845 -14.47,22.582 -17.244,37.234zm16.336,-27.835c-2.789,4.838 -6.141,16.149 -6.712,20.02c0.157,-1.067 2.891,-7.599 3.657,-9.29c1.558,-3.547 3.591,-6.816 5.289,-10.283c6.162,-12.574 12.357,-15.401 14.494,-16.916c-7.041,3.308 -11.977,8.128 -16.728,16.469zm-22.636,49.693c3.527,0.049 6.748,-1.36 9.404,-3.594c4.966,-4.177 5.505,-15.654 5.311,-16.667c0.115,0.6 -0.32,1.634 -0.458,2.207c-2.021,8.361 -5.425,11.157 -6.411,12.335c-5.188,6.198 -12.555,4.282 -16.445,4.018c2.678,0.871 5.732,1.998 8.599,1.701zm102.842,-70.323c2.286,-0.523 5.451,-1.355 8.763,0.376c0.767,0.4 1.354,0.956 2.052,1.447c-0.68,-0.478 -1.141,-1.345 -1.83,-1.865c-4.273,-3.233 -12.625,-4.116 -18.211,7.018c2.263,-3.269 5.224,-6.061 9.226,-6.976zm5.783,24.535c5.162,8.297 6.934,15.202 6.99,16.202c-0.257,-4.489 -2.794,-13.511 -5.681,-17.594c-4.828,-6.831 -10.648,-9.3 -16.343,-2.971c6.1,-5.485 10.664,-2.661 15.034,4.363zm-25.921,-24.53c4.175,3.956 6.33,6.555 8.45,11.981c0.154,0.395 0.785,1.475 0.709,1.904c0.18,-1 -2.36,-12.5 -8.289,-16.704c-5.316,-3.771 -11.695,-5.085 -18.12,-4.544c6.495,0.628 12.454,2.819 17.25,7.363zm-88.912,107.001c0.908,3.285 3.005,5.68 5.192,8.166c-2.104,-2.392 -3.806,-5.666 -4.187,-8.842c-1.254,-10.454 14.183,-19.624 18.236,-22.463c-10.075,5.195 -22.295,12.086 -19.241,23.139zm132.469,6.966c0.902,-2.707 1.123,-5.713 0.253,-8.457c-1.509,-4.762 -10.313,-12.876 -13.038,-18.543c2.083,9.288 12.847,11.595 12.382,22.561c-0.573,13.472 -20.439,13.494 -21.831,25.208c-0.852,7.131 5.628,15.771 -4.449,21.886c-2.313,1.404 -4.846,2.436 -6.994,4.104c-1.688,1.312 -2.598,2.547 -1.235,1.572c6.083,-4.354 11.355,-5.69 14.86,-9.83c5.911,-6.979 -2.328,-15.025 2.204,-22.31c3.188,-5.123 14.697,-8.842 17.848,-16.191c1.102,-3.305 -1.992,4.648 0,0z" fill="#3a353a" stroke-width="none"/>
        <path id="svg_241" d="m474.34619,323.06192c5.387,-0.243 8.898,-3.05 9.87,-9.46c-3.175,4.882 -8.078,5.779 -11.181,4.17c11.266,-8.857 8.878,-24.411 1.141,-35.03c0.742,-3.228 0.077,-6.223 -4.45,-8.89c2.911,2.471 1.497,7.196 -1.66,6.74c-4.094,-36.541 -26.934,-49.917 -43.39,-45.29c-13.518,-9.722 -28.565,-14.841 -45.87,-10.29c-34.667,9.075 -43.87,39.112 -48.83,69.36c-2.077,-1.411 -4.948,-3.106 -7.42,-3.13c-6.215,-0.062 -10.224,5.815 -11.05,11.39c-8.445,12.359 0.59,28.023 14.71,26.25c-16.989,15.276 1.356,38.655 15.81,30.931c2.886,-1.545 5.02,-4.014 6,-6.07c-4.84,6.229 -13.562,0.649 -13.23,-5.819c0.458,-8.869 13.948,-13.878 20.28,-20.321c-2.623,5.241 -18.354,13.693 -12.89,23.1c0.005,0 0.197,0.315 0.2,0.32c-2.039,-12.234 16.625,-11.175 18.2,-31.201c11.19,-20.805 16.276,-50.683 34.67,-60.46c10.764,-5.729 23.353,-3.221 28.26,11.44c12.934,-7.735 13.381,35.532 13.93,38.91c0.96,6.084 4.058,11.426 8.271,15.91c2.857,13.654 9.712,13.542 12.34,21.32c0.77,2.29 0.88,4.98 0.319,7.32c-2.92,12.169 -24.624,10.664 -21.47,27.59c0.858,4.641 3.469,11.16 -2.5,15.92c-3.733,2.997 -8.958,4.384 -11.45,8.729c9.444,-7.482 20.484,-8.248 19.74,-19.079c1.473,3.192 1.471,5.439 -0.27,8.369c0.026,-0.029 0.779,-0.87 0.779,-0.909c6.333,-7.552 -4.379,-11.542 2.33,-20.29c5.887,-7.674 30.81,-16.702 25.37,-30.301c0.769,1.268 1.858,3.806 2.29,5.04c-0.467,3.046 -2.945,6.55 -4.96,8.811c2.138,-0.488 5.975,-1.001 9.36,-3.101c11.603,-7.217 11.673,-21.985 -3.249,-31.979zm-156.51,0.25c-5.549,-2.098 -9.671,-11.194 -6.64,-18.01c-0.363,6.421 1.901,13.634 6.64,18.01zm-6.42,-20.11c-0.08,0.52 -0.14,1.05 -0.18,1.58c-3.683,6.71 -0.19,17.072 7.2,19.07c3.015,2.597 6.918,4.146 10.19,4.51c-15.537,2.907 -24.403,-12.993 -17.21,-25.16zm32.64,40.05c-1.445,2.091 -2.427,4.432 -1.96,6.921c-4.132,-9.234 10.863,-16.337 13.48,-23.091c2.703,-2.825 3.257,-3.958 4.72,-6.72c-1.83,14.831 -10.581,14.655 -16.24,22.89zm13.18,-19.35c-6.028,8.513 -19.968,12.038 -22.73,22c-1.855,6.634 6.043,14.762 12.73,8.88c-12.518,18.248 -39.865,-8.311 -20.64,-25.95c0.76,-0.11 1.51,-0.26 2.24,-0.45c9.674,1.281 22.187,-2.964 31.63,-14.32c0.01,0 0.02,-0.01 0.02,-0.02c2.33,-2.8 4.37,-5.87 6.14,-9.05c-2.105,5.733 -6.063,14.236 -9.39,18.91zm66.92,81.29c3.541,-4.132 8.822,-4.794 12.24,-8.59c5.546,-6.178 -0.225,-14.516 1.45,-20.59c2.91,-10.792 21.6,-10.715 21.6,-24.58c-0.088,-11.373 -10.232,-11.034 -13.6,-25.661c4.459,4.709 9.038,7.344 13.899,9.11c1.941,2.641 5.329,10.15 2.04,14.601c1.165,-3.166 0.117,-7.266 -1.609,-9.561c-2.066,-2.728 -3.826,-3.043 -5.681,-4.15c6.864,8.566 6.44,15.63 6.44,15.63c0,17.419 -23.907,12.546 -20.25,30.23c0.196,1 0.624,2.692 0.89,4.09c-0.01,-0.01 -0.029,-0.021 -0.05,-0.03c0.021,0.01 0.03,0.021 0.05,0.04c2.09,11.542 -8.069,12.493 -17.419,19.461zm38.32,-45.75c-6.924,6.401 -17.294,8.011 -21.15,18.88c-0.306,-10.538 13.433,-10.289 18.5,-19.979c1.69,-3.222 1.953,-7.32 1.601,-8.061c0,-2.538 -1.591,-7.867 -6.271,-13.88c7.516,4.415 7.361,11.318 6.431,13.481c2.209,-1.546 3.365,-7.719 -0.98,-14.281c8.169,7.525 9.98,15.73 1.869,23.84zm7.16,-17.31c2.592,3.737 2.784,9.406 -4.61,16.801c-9.573,8.647 -26.357,12.809 -21.439,26.29c0.885,2.365 2.672,4.772 0.05,8.72c0.597,-1.519 0.777,-3.598 -0.96,-6.86c-0.248,-2.982 -1.139,-5.604 -1.33,-8.21c3.622,-12.24 18.049,-12.624 24.49,-22.229c7.605,-11.455 -4.923,-20.591 -5.601,-21.591c2.891,1.01 13.438,3.935 13.07,13.161c-0.821,-2.712 -2.574,-5.2 -3.67,-6.082zm7.25,12.81c-3.326,2.004 -7.141,2.506 -8.141,2.86c3.398,-4.015 6.219,-8.195 4.61,-13.23c-3.758,-11.723 -14.523,-6.502 -26.75,-19.93c-0.112,-0.122 -1.376,-1.544 -1.43,-1.68c-7.846,-9.677 -6.185,-15.976 -7.891,-29.21c-1.295,-10.17 -4.581,-28.055 -13.72,-23.38c-2.851,-9.242 -9.671,-15.153 -19.9,-14.17c-20.827,2.012 -28.627,28.2 -34.56,40.92c0,0.01 0,0.02 -0.01,0.03c-20.624,44.127 -59.998,34.618 -57.14,6.74c1.021,-10.465 9.459,-15.968 18.26,-9.08c7.36,-57.481 50.768,-88.344 94.45,-59.08c14.854,-4.919 37.499,9.926 42.96,44.76c-2.972,-0.829 -6.056,-5.883 -6.72,-8.19c0.49,1.76 1.42,3.45 2.44,4.95c5.747,8.061 10.12,1.48 7.399,-2.47c2.901,2.632 3.636,3.35 3.19,7.63c0.01,0.03 0.01,0.05 -0.01,0.08c5.651,6.941 11.34,25.178 -1.101,35.17l-0.01,0c-0.08,0.07 -0.17,0.14 -0.25,0.2c1.095,0.924 6.884,3.011 11.24,-3.19c-0.965,5.104 -5.571,8.12 -10.17,8.12c15.754,10.895 14.015,25.66 3.254,32.15z" fill="#000000" stroke-width="none"/>
       </g>
       <g id="svg_235">
        <g id="svg_236">
         <path id="svg_239" d="m353.43719,314.20292c11.69,3.22 28.34,-0.15 40.03,7.14c-0.08,0.44 -0.16,0.87 -0.25,1.31c-0.64,2.91 -3.23,4.82 -6.36,5.38c-8.44,1.51 -22.57,1.32 -30.84,0.74c-1.19,-0.08 -2.16,-0.9 -2.36,-2c-0.81,-4.36 -1.12,-8.02 -0.22,-12.57zm53.99,1.36c0.05,2.48 0.32,4.73 0.83,7.1c0.63,2.91 3.23,4.82 6.36,5.38c8.44,1.51 22.57,1.32 30.84,0.74c1.19,-0.08 2.16,-0.9 2.36,-2c0.31,-1.69 0.55,-3.28 0.67,-4.85c-11.7,-8.04 -28.85,-4.44 -40.84,-7.71c-0.14,0.43 -0.23,0.88 -0.22,1.34z" fill="#ffffff" stroke-width="none" opacity="0.2"/>
         <path id="svg_238" d="m394.04719,315.56292c-0.05,2.02 -0.24,3.88 -0.58,5.78c-11.69,-7.3 -28.35,-3.92 -40.03,-7.14c0.03,-0.12 0.04,-0.24 0.07,-0.37c0.26,-1.24 1.34,-2.15 2.68,-2.28c12.7,-1.18 21.35,-1.08 33.89,-0.11c2.27,0.19 4.02,1.99 3.97,4.12zm53.93,-1.72c-0.26,-1.24 -1.34,-2.15 -2.68,-2.28c-12.7,-1.18 -21.35,-1.08 -33.89,-0.11c-1.78,0.14 -3.22,1.27 -3.75,2.78c11.98,3.27 29.14,-0.33 40.84,7.71c0.2,-2.6 0.09,-5.16 -0.52,-8.1z" fill="#ffffff" stroke-width="none" opacity="0.4"/>
         <path id="svg_237" d="m453.73719,313.95292l-5.22,0c-0.02,-0.07 -0.02,-0.14 -0.04,-0.21c-0.3,-1.44 -1.57,-2.52 -3.13,-2.67c-12.9,-1.2 -21.6,-1.07 -33.98,-0.11c-0.15,0.01 -0.29,0.05 -0.43,0.07l0.03,-0.03c0,0 -0.12,0.03 -0.33,0.08c-0.09,0.02 -0.19,0.04 -0.28,0.06c-1.08,0.24 -3.42,0.7 -5.37,0.76c-3.91,0.12 -4.75,0.11 -8.5,0c-1.95,-0.06 -4.29,-0.52 -5.37,-0.76c-0.09,-0.03 -0.18,-0.04 -0.28,-0.06c-0.21,-0.05 -0.33,-0.08 -0.33,-0.08l0.03,0.03c-0.14,-0.02 -0.28,-0.06 -0.43,-0.07c-12.39,-0.96 -21.09,-1.09 -33.98,0.11c-1.56,0.15 -2.83,1.23 -3.13,2.67c-0.02,0.07 -0.02,0.14 -0.04,0.21l-5.22,0l0,2.92l4.79,0c-0.17,1.7 -0.19,3.33 -0.07,4.97l1.06,0c-0.2,-2.54 -0.09,-5.05 0.51,-7.92c0.21,-1.02 1.1,-1.78 2.21,-1.88c6.3,-0.59 11.69,-0.86 16.98,-0.86c4.97,0 9.99,0.22 16.81,0.75c2,0.15 3.53,1.74 3.49,3.61c-0.05,2.2 -0.28,4.22 -0.69,6.29l1.07,0c0.39,-2.02 0.62,-4.02 0.67,-6.27c0.01,-0.66 -0.13,-1.28 -0.39,-1.85c0.33,-0.07 0.85,-0.16 1.51,-0.21c2.51,-0.18 8.07,-0.14 10.11,0c0.66,0.05 1.19,0.14 1.51,0.21c-0.26,0.57 -0.41,1.19 -0.39,1.85c0.05,2.25 0.28,4.25 0.67,6.27l1.07,0c-0.41,-2.07 -0.64,-4.09 -0.68,-6.29c-0.04,-1.87 1.49,-3.46 3.49,-3.61c6.82,-0.53 11.84,-0.75 16.81,-0.75c5.29,0 10.69,0.27 16.98,0.86c1.11,0.1 2,0.86 2.21,1.88c0.6,2.87 0.71,5.38 0.51,7.92l1.05,0c0.13,-1.64 0.1,-3.27 -0.07,-4.97l4.78,0l0,-2.92z" fill="#130b3c" stroke-width="none"/>
        </g>
       </g>
      </g>
     </g>
    </g>
   </g>
  </g>
  <text stroke="#000" xml:space="preserve" text-anchor="start" font-family="Helvetica, Arial, sans-serif" font-size="24" id="svg_3" y="45.37466" x="46.43497" stroke-width="0" fill="#ffffff" font-weight="bold">
   <tspan stroke="null" x="46.43497" dy=".6em" id="svg_4">Meet Lakshmi.</tspan>
  </text>
  <text xml:space="preserve" text-anchor="start" font-family="Helvetica, Arial, sans-serif" font-size="24" id="svg_3" y="326.00283" x="44.44095" stroke-width="0" stroke="#000" fill="#ffffff">
   <tspan x="44.44095" dy="2.4em" id="svg_5">Lakshmi is a training manager in a</tspan>
   <tspan x="44.44095" dy="1.2em" id="svg_6">bank and is responsible for</tspan>
   <tspan x="44.44095" dy="1.2em" id="svg_7">new employee on-boarding. She needs</tspan>
   <tspan x="44.44095" dy="1.2em" id="svg_8">to coordinate the work of her trainers</tspan>
   <tspan x="44.44095" dy="1.2em" id="svg_9">who are spread across multiple locations.</tspan>
   <tspan x="44.44095" dy="1.2em" id="svg_10">She also needs to collaborate with other</tspan>
   <tspan x="44.44095" dy="1.2em" id="svg_11">departments such as HR, IT and</tspan>
   <tspan x="44.44095" dy="1.2em" id="svg_12">retail banking product teams.</tspan>
  </text>
  <text xml:space="preserve" text-anchor="start" font-family="Helvetica, Arial, sans-serif" font-size="24" id="svg_13" y="7.91296" x="436.79131" stroke-width="0" stroke="#000" fill="#ffffff">
   <tspan x="509.11163" dy="2.4em" id="svg_14">Lakshmi uses Lightbulb by Viventra</tspan>
   <tspan x="509.11163" dy="1.2em" id="svg_15">to empower her trainers to come up</tspan>
   <tspan x="509.11163" dy="1.2em" id="svg_16">with new ideas when they are out on</tspan>
   <tspan x="509.11163" dy="1.2em" id="svg_17">the field doing their day-to-day jobs.</tspan>
  </text>
  <text xml:space="preserve" text-anchor="start" font-family="Helvetica, Arial, sans-serif" font-size="24" id="svg_18" y="187.39831" x="509.10618" stroke-width="0" stroke="#000" fill="#ffffff">
   <tspan x="509.10618" dy="1.2em" id="svg_19">She can nurture those ideas,</tspan>
   <tspan x="509.10618" dy="1.2em" id="svg_20">develop them with her team,</tspan>
   <tspan x="509.10618" dy="1.2em" id="svg_21">track outcomes and action items</tspan>
   <tspan x="509.10618" dy="1.2em" id="svg_22">without letting distance come in the way</tspan>
   <tspan x="509.10618" dy="1.2em" id="svg_23">of team cohesion and collaboration.</tspan>
  </text>
  <text xml:space="preserve" text-anchor="start" font-family="Helvetica, Arial, sans-serif" font-size="24" id="svg_24" y="383.60839" x="508.60987" stroke-width="0" stroke="#000" fill="#ffffff" font-weight="normal">Does that sound like what you go through in your job?</text>
  <text xml:space="preserve" text-anchor="start" font-family="Helvetica, Arial, sans-serif" font-size="24" id="svg_25" y="467.85582" x="508.60987" stroke-width="0" stroke="#000" fill="#ffffff" font-weight="bold">Signup for our free launch trial for Lightbulb by Viventra.</text>
  <text xml:space="preserve" text-anchor="start" font-family="Helvetica, Arial, sans-serif" font-size="24" id="svg_26" y="502.98416" x="508.60987" stroke-width="0" stroke="#000" fill="#C0D725" font-weight="bold">Email</text>
  <text xml:space="preserve" text-anchor="start" font-family="Helvetica, Arial, sans-serif" font-size="24" id="svg_27" y="502.98416" x="588.78397" stroke-width="0" stroke="#000000" fill="#C0D725" font-weight="bold">subscribe@viventra.in</text>
  <text xml:space="preserve" text-anchor="start" font-family="Helvetica, Arial, sans-serif" font-size="24" id="svg_28" y="502.98416" x="857.87918" stroke-width="0" stroke="#000" fill="#C0D725" font-weight="bold">today!</text>
  <g stroke="null" id="svg_52">
   <g stroke="null" transform="matrix(0.17504502270412428,0,0,0.17504502270412428,-5409.201754027745,-2849.480852857232) " id="svg_51">
    <title>Layer 1</title>
    <path stroke="null" fill="#f0ad4e" d="m34548.924114,19602.038502c0.00622,3.91338 1.16344,7.74588 3.33477,11.00599l10.6327,15.98326a19.90286,19.90286 0 0 0 16.57431,8.88443l38.39343,0a19.90286,19.90286 0 0 0 16.57431,-8.88443l10.6327,-15.98326a19.90224,19.90224 0 0 0 3.33477,-11.00599l0.02489,-23.85979l-99.53298,0l0.03111,23.85979l-0.00001,0zm-59.76458,-173.17793c0,27.60519 10.23451,52.79018 27.10124,72.03356c10.27806,11.7277 26.35465,36.22831 32.48292,56.89643c0.02489,0.16176 0.04355,0.32352 0.06844,0.48528l99.69474,0c0.02489,-0.16176 0.04355,-0.3173 0.06844,-0.48528c6.12827,-20.66812 22.20485,-45.16874 32.48292,-56.89643c16.86673,-19.24337 27.10124,-44.42837 27.10124,-72.03356c0,-60.59205 -49.20655,-109.68661 -109.84215,-109.49997c-63.46643,0.19287 -109.15778,51.62052 -109.15778,109.49997l-0.00001,0zm109.49997,-49.77271c-27.44343,0 -49.77271,22.32928 -49.77271,49.77271c0,5.49988 -4.45466,9.95454 -9.95454,9.95454s-9.95454,-4.45466 -9.95454,-9.95454c0,-38.42453 31.25726,-69.6818 69.6818,-69.6818c5.49988,0 9.95454,4.45466 9.95454,9.95454s-4.45466,9.95454 -9.95454,9.95454l-0.00001,0.00001z" id="svg_45"/>
    <text stroke="#000" fill="#ffffff" stroke-width="0" x="3824.579903" y="2203.470318" id="svg_44" font-weight="lighter" font-size="24" font-family="Helvetica Neue, Arial, sans-serif" text-anchor="start" xml:space="preserve" transform="matrix(10.320568158640638,0,0,10.320568158640638,-4661.476044849485,-3155.3075412390704) ">Lightbulb</text>
   </g>
  </g>
  <text xml:space="preserve" text-anchor="start" font-family="Helvetica, Arial, sans-serif" font-size="24" id="svg_53" y="575.690481" x="891.712451" stroke-width="0" stroke="#000" fill="#ffffff" font-weight="bold">by</text>
 </g>
</svg>